<svg xmlns="http://www.w3.org/2000/svg" xmlns:xlink="http://www.w3.org/1999/xlink" xml:space="preserve" version="1.1"
  style="shape-rendering:geometricPrecision;text-rendering:geometricPrecision;image-rendering:optimizeQuality;"
  viewBox="0 0 846.66 1058.325" x="0px" y="0px" fill-rule="evenodd" clip-rule="evenodd">
  <defs>
    <style type="text/css">
      .fil0 {
        fill: black;
        fill-rule: nonzero
      }
    </style>
  </defs>
  <g>
    <path class="fil0"
      d="M720.74 423.11c0,-4.34 -1.75,-8.26 -4.55,-11.07 -2.81,-2.8 -6.73,-4.55 -11.07,-4.55 -4.31,0 -8.22,1.75 -11.04,4.57 -2.82,2.82 -4.58,6.74 -4.58,11.05 0,4.31 1.76,8.23 4.58,11.05 2.82,2.82 6.73,4.57 11.04,4.57 4.34,0 8.26,-1.75 11.07,-4.55 2.8,-2.81 4.55,-6.73 4.55,-11.07zm83.59 -92.42c0,11.32 -4.6,21.59 -12.01,29 -7.42,7.42 -17.69,12.02 -29.01,12.02 -11.26,0 -21.52,-4.6 -28.95,-12.02 -4.59,-4.6 -8.09,-10.25 -10.11,-16.52l-119.03 0 0 67.46 60.82 0c2.01,-6.31 5.51,-11.96 10.08,-16.53 7.41,-7.41 17.68,-12.01 29,-12.01 11.28,0 21.53,4.6 28.98,12.04 7.44,7.45 12.04,17.7 12.04,28.98 0,11.28 -4.6,21.53 -12.01,28.96 -7.48,7.46 -17.73,12.06 -29.01,12.06 -11.32,0 -21.59,-4.6 -29,-12.01 -4.46,-4.46 -7.91,-9.96 -9.94,-16.09l-60.96 0 0 67.46 118.57 0c2.01,-6.28 5.51,-11.91 10.06,-16.48 7.48,-7.46 17.73,-12.06 29.01,-12.06 11.32,0 21.59,4.6 29.01,12.02 7.41,7.41 12.01,17.68 12.01,29 0,11.28 -4.6,21.53 -12.01,28.96 -7.48,7.46 -17.73,12.06 -29.01,12.06 -11.28,0 -21.53,-4.6 -28.96,-12.01 -4.48,-4.49 -7.93,-9.98 -9.97,-16.09l-118.71 0 0 34.77c0,11.44 -4.67,21.84 -12.19,29.36 -4.91,4.91 -11.06,8.61 -17.92,10.58l0 89.92c0,4.45 1.83,8.52 4.77,11.46 2.94,2.94 7.02,4.77 11.46,4.77l33.69 0c2.03,-6.18 5.47,-11.72 9.97,-16.23 7.5,-7.49 17.76,-12.09 29.02,-12.09 11.32,0 21.59,4.6 29.01,12.02 7.41,7.41 12.01,17.68 12.01,29 0,11.28 -4.6,21.53 -12.04,28.98 -7.45,7.44 -17.7,12.04 -28.98,12.04 -11.32,0 -21.59,-4.6 -29,-12.01 -4.52,-4.52 -7.99,-10.09 -10.01,-16.31l-33.67 0c-11.46,0 -21.89,-4.68 -29.42,-12.21 -7.53,-7.53 -12.21,-17.95 -12.21,-29.42l0 -88.31 -68.29 0 0 107.71c6.13,2.03 11.63,5.48 16.09,9.94 7.41,7.41 12.01,17.68 12.01,29 0,11.28 -4.6,21.53 -12.01,28.96 -7.48,7.46 -17.73,12.06 -29.01,12.06 -11.29,0 -21.54,-4.6 -28.97,-12.01 -7.46,-7.48 -12.06,-17.73 -12.06,-29.01 0,-11.32 4.6,-21.59 12.02,-29.01 4.56,-4.56 10.22,-8.05 16.53,-10.07l0 -107.57 -67.47 0 0 49.99c6.1,2.04 11.58,5.47 16.04,9.92 7.46,7.48 12.06,17.73 12.06,29.01 0,11.28 -4.6,21.53 -12.01,28.96 -7.48,7.46 -17.73,12.06 -29.01,12.06 -11.28,0 -21.53,-4.6 -28.96,-12.01 -7.46,-7.48 -12.06,-17.73 -12.06,-29.01 0,-11.32 4.6,-21.59 12.01,-29 4.57,-4.57 10.22,-8.07 16.53,-10.08l0 -49.84 -67.46 0 0 88.31c0,11.47 -4.68,21.89 -12.21,29.42 -7.53,7.53 -17.96,12.21 -29.42,12.21l-33.67 0c-2.02,6.22 -5.49,11.79 -10.01,16.31 -7.41,7.41 -17.68,12.01 -29,12.01 -11.28,0 -21.53,-4.6 -28.96,-12.01 -7.46,-7.48 -12.06,-17.73 -12.06,-29.01 0,-11.28 4.6,-21.53 12.01,-28.96 7.48,-7.46 17.73,-12.06 29.01,-12.06 11.26,0 21.52,4.6 28.95,12.02 4.54,4.55 8.01,10.11 10.04,16.3l33.69 0c4.44,0 8.52,-1.83 11.46,-4.77 2.94,-2.94 4.77,-7.01 4.77,-11.46l0 -90.3c-6.35,-2.05 -12.05,-5.59 -16.66,-10.2 -7.52,-7.52 -12.19,-17.92 -12.19,-29.36l0 -34.77 -118.71 0c-2.04,6.1 -5.47,11.58 -9.92,16.04 -7.48,7.46 -17.73,12.06 -29.01,12.06 -11.28,0 -21.53,-4.6 -28.96,-12.01 -7.46,-7.48 -12.06,-17.73 -12.06,-29.01 0,-11.32 4.6,-21.59 12.01,-29 7.42,-7.42 17.69,-12.02 29.01,-12.02 11.28,0 21.53,4.6 28.96,12.01 4.58,4.6 8.09,10.24 10.11,16.53l118.57 0 0 -67.46 -60.96 0c-2.03,6.13 -5.48,11.63 -9.94,16.09 -7.41,7.41 -17.68,12.01 -29,12.01 -11.28,0 -21.53,-4.6 -28.96,-12.01 -7.46,-7.48 -12.06,-17.73 -12.06,-29.01 0,-11.28 4.6,-21.53 12.01,-28.96 7.48,-7.46 17.73,-12.06 29.01,-12.06 11.32,0 21.59,4.6 29,12.01 4.57,4.57 8.07,10.22 10.08,16.53l60.82 0 0 -67.46 -119.02 0c-2.01,6.26 -5.5,11.89 -10.05,16.45 -7.5,7.49 -17.76,12.09 -29.02,12.09 -11.32,0 -21.59,-4.6 -29.01,-12.02 -7.41,-7.41 -12.01,-17.68 -12.01,-29 0,-11.28 4.6,-21.53 12.01,-28.96 7.48,-7.46 17.73,-12.06 29.01,-12.06 11.32,0 21.59,4.6 29,12.01 4.46,4.46 7.91,9.96 9.94,16.09l119.15 0 0 -34.78c0,-11.44 4.67,-21.84 12.19,-29.36 4.61,-4.61 10.31,-8.15 16.66,-10.2l0 -90.29c0,-4.45 -1.83,-8.52 -4.77,-11.46 -2.94,-2.94 -7.02,-4.77 -11.46,-4.77l-33.69 0c-2.03,6.18 -5.47,11.72 -9.97,16.23 -7.5,7.49 -17.76,12.09 -29.02,12.09 -11.28,0 -21.53,-4.6 -28.96,-12.01 -7.46,-7.48 -12.06,-17.73 -12.06,-29.01 0,-11.28 4.6,-21.53 12.04,-28.98 7.45,-7.44 17.7,-12.04 28.98,-12.04 11.32,0 21.59,4.6 29,12.01 4.52,4.52 7.99,10.09 10.01,16.31l33.67 0c11.46,0 21.89,4.68 29.42,12.21 7.53,7.53 12.21,17.95 12.21,29.42l0 88.3 68.29 0 0 -107.7c-6.13,-2.03 -11.63,-5.48 -16.09,-9.94 -7.41,-7.41 -12.01,-17.68 -12.01,-29 0,-11.28 4.6,-21.53 12.01,-28.96 7.48,-7.46 17.73,-12.06 29.01,-12.06 11.28,0 21.53,4.6 28.96,12.01 7.46,7.41 12.06,17.68 12.06,29.01 0,11.28 -4.6,21.53 -12.01,28.96 -4.6,4.58 -10.24,8.09 -16.53,10.11l0 107.57 67.46 0 0 -49.97c-6.13,-2.04 -11.62,-5.47 -16.08,-9.93 -7.42,-7.42 -12.02,-17.69 -12.02,-29.01 0,-11.32 4.6,-21.59 12.02,-29.01 7.41,-7.41 17.69,-12.01 29.01,-12.01 11.28,0 21.53,4.6 28.96,12.01 7.46,7.48 12.06,17.73 12.06,29.01 0,11.32 -4.6,21.59 -12.01,29 -4.57,4.57 -10.23,8.07 -16.54,10.09l0 49.82 67.47 0 0 -88.3c0,-11.47 4.68,-21.89 12.21,-29.42 7.53,-7.53 17.96,-12.21 29.42,-12.21l33.67 0c2.02,-6.22 5.49,-11.79 10.01,-16.31 7.41,-7.41 17.68,-12.01 29,-12.01 11.28,0 21.53,4.6 28.96,12.01 7.46,7.48 12.06,17.73 12.06,29.01 0,11.32 -4.6,21.59 -12.01,29 -7.42,7.42 -17.69,12.02 -29.01,12.02 -11.26,0 -21.52,-4.6 -28.95,-12.02 -4.54,-4.55 -8.01,-10.11 -10.04,-16.3l-33.69 0c-4.44,0 -8.52,1.83 -11.46,4.77 -2.94,2.94 -4.77,7.01 -4.77,11.46l0 89.91c6.86,1.97 13.01,5.67 17.92,10.58 7.52,7.52 12.19,17.92 12.19,29.36l0 34.78 119.15 0c2.03,-6.13 5.48,-11.63 9.94,-16.09 7.41,-7.41 17.68,-12.01 29,-12.01 11.28,0 21.53,4.6 28.96,12.01 7.46,7.48 12.06,17.73 12.06,29.01zm-29.97 11.04c2.82,-2.82 4.57,-6.73 4.57,-11.04 0,-4.34 -1.75,-8.26 -4.55,-11.07 -2.81,-2.8 -6.73,-4.55 -11.07,-4.55 -4.31,0 -8.22,1.75 -11.04,4.57 -3.04,3.04 -4.58,6.98 -4.58,11.25 0.05,4.26 1.78,8.09 4.53,10.84 2.84,2.84 6.75,4.58 11.09,4.58 4.31,0 8.23,-1.76 11.05,-4.58zm-27.12 174.46c0.06,4.25 1.79,8.08 4.55,10.85 2.81,2.8 6.73,4.55 11.07,4.55 4.34,0 8.26,-1.75 11.07,-4.55 2.8,-2.81 4.55,-6.73 4.55,-11.07 0,-4.31 -1.75,-8.22 -4.57,-11.04 -2.82,-2.82 -6.74,-4.58 -11.05,-4.58 -4.34,0 -8.26,1.75 -11.07,4.55 -3.06,3.07 -4.55,6.99 -4.55,11.29zm-648.27 -185.3l0 -0.09 0 -0.11 0 -0.2 0 -0.02c-0.07,-4.22 -1.8,-8.05 -4.58,-10.83 -2.82,-2.82 -6.73,-4.57 -11.04,-4.57 -4.34,0 -8.26,1.75 -11.07,4.55 -2.8,2.81 -4.55,6.73 -4.55,11.07 0,4.31 1.75,8.22 4.57,11.04 2.82,2.82 6.74,4.58 11.05,4.58 4.34,0 8.25,-1.74 11.04,-4.53 2.8,-2.8 4.53,-6.63 4.58,-10.89zm31.5 81.15c-2.8,2.81 -4.55,6.73 -4.55,11.07 0,4.34 1.75,8.26 4.55,11.07 2.81,2.8 6.73,4.55 11.07,4.55 4.31,0 8.22,-1.75 11.04,-4.57 2.82,-2.82 4.58,-6.74 4.58,-11.05 0,-4.31 -1.76,-8.23 -4.58,-11.05 -2.82,-2.82 -6.73,-4.57 -11.04,-4.57 -4.34,0 -8.26,1.75 -11.07,4.55zm-31.05 104.15l0 -0.02 0 -0.2 0 -0.11 0 -0.09c-0.05,-4.26 -1.79,-8.1 -4.55,-10.87 -2.81,-2.8 -6.73,-4.55 -11.07,-4.55 -4.31,0 -8.23,1.76 -11.05,4.58 -2.82,2.82 -4.57,6.73 -4.57,11.04 0,4.34 1.75,8.26 4.55,11.07 2.81,2.8 6.73,4.55 11.07,4.55 4.34,0 8.26,-1.75 11.07,-4.55 2.76,-2.77 4.49,-6.6 4.55,-10.85zm548.98 206.26c0,4.14 1.65,8.12 4.58,11.05 2.82,2.82 6.73,4.57 11.04,4.57 4.34,0 8.26,-1.75 11.07,-4.55 2.8,-2.81 4.55,-6.73 4.55,-11.07 0,-4.31 -1.75,-8.22 -4.57,-11.04 -2.82,-2.82 -6.74,-4.58 -11.05,-4.58 -4.34,0 -8.25,1.74 -11.04,4.53 -2.97,2.97 -4.58,6.9 -4.58,11.09zm-451.4 -0.2c0,-4.02 -1.7,-8.01 -4.53,-10.84 -2.84,-2.84 -6.75,-4.58 -11.09,-4.58 -4.34,0 -8.26,1.75 -11.07,4.55 -2.8,2.81 -4.55,6.73 -4.55,11.07 0,4.34 1.75,8.26 4.55,11.07 2.81,2.8 6.73,4.55 11.07,4.55 4.31,0 8.22,-1.75 11.04,-4.57 3.04,-3.04 4.58,-6.98 4.58,-11.25zm167.56 -17.05c2.81,2.8 6.73,4.55 11.07,4.55 4.34,0 8.26,-1.75 11.07,-4.55 2.8,-2.81 4.55,-6.73 4.55,-11.07 0,-4.34 -1.75,-8.26 -4.55,-11.07 -2.81,-2.8 -6.73,-4.55 -11.07,-4.55 -4.31,0 -8.23,1.76 -11.05,4.58 -2.82,2.82 -4.57,6.73 -4.57,11.04 0,4.34 1.75,8.26 4.55,11.07zm103.83 31.04c-4.08,0 -8.06,1.69 -10.94,4.57 -2.82,2.82 -4.58,6.74 -4.58,11.05 0,4.34 1.75,8.26 4.55,11.07 2.81,2.8 6.74,4.55 11.08,4.55 4.34,0 8.26,-1.75 11.07,-4.55 2.8,-2.81 4.55,-6.73 4.55,-11.07 0,-4.31 -1.75,-8.22 -4.57,-11.04 -2.99,-2.99 -6.95,-4.58 -11.16,-4.58zm-271.39 -612.36c-0.1,-4.18 -1.83,-7.97 -4.58,-10.72 -2.82,-2.82 -6.73,-4.57 -11.04,-4.57 -4.34,0 -8.26,1.75 -11.07,4.55 -2.8,2.81 -4.55,6.73 -4.55,11.07 0,4.34 1.75,8.26 4.55,11.07 2.81,2.8 6.73,4.55 11.07,4.55 4.34,0 8.25,-1.74 11.04,-4.53 3.15,-3.15 4.58,-7.03 4.58,-11.42zm451.4 0.66c0.08,4.2 1.81,7.99 4.53,10.71 2.84,2.84 6.75,4.58 11.09,4.58 4.31,0 8.23,-1.76 11.05,-4.58 2.82,-2.82 4.57,-6.73 4.57,-11.04 0,-4.34 -1.75,-8.26 -4.55,-11.07 -2.81,-2.8 -6.73,-4.55 -11.07,-4.55 -4.31,0 -8.22,1.75 -11.04,4.57 -3.11,3.11 -4.58,7.04 -4.58,11.38zm-167.56 16.92c-2.81,-2.8 -6.73,-4.55 -11.07,-4.55 -4.31,0 -8.23,1.75 -11.05,4.57 -2.82,2.82 -4.58,6.74 -4.58,11.05 0,4.31 1.76,8.23 4.58,11.05 2.82,2.82 6.74,4.57 11.05,4.57 4.31,0 8.23,-1.76 11.05,-4.58 2.82,-2.82 4.57,-6.73 4.57,-11.04 0,-4.34 -1.75,-8.26 -4.55,-11.07zm-103.94 -31.04c4.16,0 8.12,-1.61 11.07,-4.55 2.8,-2.81 4.55,-6.73 4.55,-11.07 0,-4.32 -1.75,-8.23 -4.56,-11.06 -2.8,-2.81 -6.72,-4.56 -11.06,-4.56 -4.34,0 -8.26,1.75 -11.07,4.55 -2.8,2.81 -4.55,6.73 -4.55,11.07 0,4.31 1.75,8.22 4.57,11.04 2.93,2.93 6.91,4.58 11.05,4.58zm150.86 195.78c0,-7.01 5.69,-12.7 12.7,-12.7 7.01,0 12.7,5.69 12.7,12.7l0 234.26c0,7.01 -5.69,12.7 -12.7,12.7l-145.69 0c-7.01,0 -12.7,-5.69 -12.7,-12.7 0,-7.01 5.69,-12.7 12.7,-12.7l132.99 0 0 -221.56zm-208.86 234.26c0,7.01 -5.69,12.7 -12.7,12.7 -7.01,0 -12.7,-5.69 -12.7,-12.7l0 -234.26c0,-7.01 5.69,-12.7 12.7,-12.7l145.69 0c7.01,0 12.7,5.69 12.7,12.7 0,7.01 -5.69,12.7 -12.7,12.7l-132.99 0 0 221.56zm243.51 -273.62c-93.25,0 -186.5,0 -279.75,0 -4.3,0.09 -8.22,1.9 -11.07,4.75 -2.92,2.92 -4.75,6.97 -4.75,11.4l0 280.67c0,4.43 1.83,8.48 4.75,11.4 2.92,2.92 6.97,4.75 11.4,4.75l280.68 0c4.43,0 8.48,-1.83 11.4,-4.75 2.92,-2.92 4.75,-6.97 4.75,-11.4l0 -280.67c0,-4.43 -1.83,-8.48 -4.75,-11.4 -3.68,-3.68 -7.64,-4.75 -12.66,-4.75z" />
  </g><text x="0" y="861.66" fill="#000000" font-size="5px" font-weight="bold"
    font-family="'Helvetica Neue', Helvetica, Arial-Unicode, Arial, Sans-serif">Created by Neneng Fadliyah</text><text
    x="0" y="866.66" fill="#000000" font-size="5px" font-weight="bold"
    font-family="'Helvetica Neue', Helvetica, Arial-Unicode, Arial, Sans-serif">from the Noun Project</text>
</svg>