<svg xmlns="http://www.w3.org/2000/svg" xmlns:xlink="http://www.w3.org/1999/xlink" version="1.1" x="0px" y="0px"
    viewBox="0 0 72 90" style="enable-background:new 0 0 72 72;" xml:space="preserve">
    <path
        d="M18.03,31.86V18.81c0-3.7,2.96-6.66,6.66-6.66h15.73c0.37-1.48,1.67-2.5,3.24-2.5c1.48,0,2.78,1.02,3.15,2.5h15.73  c3.7,0,6.66,2.96,6.66,6.66v23.5c0,3.61-2.96,6.66-6.66,6.66H51.53v3.52h5.09c1.85,0,3.42,1.48,3.42,3.42  c0,1.85-1.57,3.33-3.42,3.33h-26c-1.85,0-3.42-1.48-3.42-3.33c0-1.94,1.57-3.42,3.42-3.42h5.09v-3.52H25.25V64.8  c0,2.41-2.04,4.44-4.53,4.44H7.49c-2.5,0-4.44-2.04-4.44-4.44V36.3c0-2.31,1.76-4.26,3.98-4.44c0.37-1.48,1.67-2.5,3.24-2.5  s2.87,1.02,3.24,2.5H18.03z M42.27,30.66l5-5c1.02-1.11,2.78-1.02,3.79,0c0.83,0.93,1.02,2.59-0.09,3.61l-6.85,6.94  c-1.02,1.02-2.68,1.02-3.7,0l-4.16-4.16c-1.02-0.93-1.02-2.68,0-3.7c1.02-1.02,2.68-1.02,3.7,0L42.27,30.66z M48.38,26.68  l-5.55,5.64c-0.28,0.28-0.83,0.28-1.11,0l-2.87-2.87c-0.37-0.37-1.02-0.37-1.48,0c-0.46,0.37-0.46,1.11,0,1.48l4.16,4.16  c0.37,0.37,1.11,0.37,1.48,0l6.85-6.85c0.37-0.46,0.37-1.11,0-1.57C49.49,26.31,48.75,26.31,48.38,26.68L48.38,26.68z M12.76,49.07  l5-5.09c1.02-1.02,2.78-0.93,3.79,0.09c0.83,0.93,1.02,2.59-0.09,3.61l-6.85,6.94c-1.02,1.02-2.68,1.02-3.7,0l-4.16-4.16  c-1.02-1.02-1.02-2.68,0-3.7c1.02-1.02,2.68-1.02,3.7,0L12.76,49.07z M18.87,45.09l-5.55,5.64c-0.28,0.28-0.83,0.28-1.11,0  l-2.87-2.87c-0.37-0.37-1.02-0.37-1.48,0c-0.37,0.37-0.46,1.11,0,1.48l4.16,4.16c0.37,0.37,1.11,0.37,1.48,0l6.85-6.94  c0.46-0.37,0.46-1.02,0-1.48C19.98,44.72,19.24,44.72,18.87,45.09L18.87,45.09z M43.66,17.98c6.85,0,12.49,5.64,12.49,12.58  c0,4.26-2.04,7.96-5.27,10.27h16.75V18.81c0-2.78-2.31-5.09-5.09-5.09H46.81c-0.37,1.48-1.67,2.59-3.15,2.59  c-1.57,0-2.87-1.11-3.24-2.59H24.69c-2.78,0-5,2.31-5,5.09v13.05h1.02c2.5,0,4.53,1.94,4.53,4.44v4.53h11.1  c-3.24-2.31-5.27-6.01-5.27-10.27C31.08,23.63,36.72,17.98,43.66,17.98L43.66,17.98z M47.64,42.41c-1.2,0.46-2.59,0.74-3.98,0.74  c-1.48,0-2.87-0.28-4.07-0.74H25.25v4.9h37.29c2.78,0,5-2.22,5-4.9H47.64z M43.66,19.65c-6.11,0-11.01,4.81-11.01,10.92  c0,6.01,4.9,10.92,11.01,10.92c6.01,0,10.92-4.9,10.92-10.92C54.58,24.46,49.68,19.65,43.66,19.65L43.66,19.65z M43.57,44.07  c0.46,0,0.74,0.37,0.74,0.83s-0.28,0.83-0.74,0.83c-0.46,0-0.83-0.37-0.83-0.83S43.11,44.07,43.57,44.07L43.57,44.07z M4.62,36.67  h18.97V36.3c0-1.57-1.3-2.87-2.87-2.87H13.5c-0.37,1.48-1.67,2.5-3.24,2.5c-1.48,0-2.87-1.02-3.24-2.41  c-1.3,0.19-2.41,1.39-2.41,2.78V36.67z M23.58,38.34H4.62V61.1h18.97V38.34z M13.87,66c0.46,0,0.83-0.37,0.83-0.83  c0-0.46-0.37-0.83-0.83-0.83c-0.37,0-0.74,0.37-0.74,0.83C13.13,65.63,13.5,66,13.87,66L13.87,66z M23.58,62.76H4.62v2.04  c0,1.57,1.3,2.87,2.87,2.87h13.23c1.57,0,2.87-1.3,2.87-2.87V62.76z M4.25,26.59c-0.83,0.74-1.94-0.37-1.2-1.2  c3.98-3.89,10.45-3.89,14.43,0c0.83,0.83-0.37,1.94-1.11,1.2C13.04,23.26,7.58,23.26,4.25,26.59L4.25,26.59z M6.56,28.9  c-0.74,0.83-1.94-0.37-1.11-1.11c2.68-2.68,7.03-2.68,9.71,0c0.74,0.74-0.46,1.94-1.2,1.11C11.93,26.86,8.6,26.86,6.56,28.9  L6.56,28.9z M10.26,30.93c-0.93,0-1.67,0.74-1.67,1.76c0,0.93,0.74,1.67,1.67,1.67s1.76-0.74,1.76-1.67  C12.02,31.67,11.19,30.93,10.26,30.93L10.26,30.93z M37.56,6.88c-0.74,0.74-1.94-0.37-1.2-1.2c3.98-3.89,10.55-3.89,14.53,0  c0.74,0.83-0.46,1.94-1.2,1.2C46.35,3.55,40.89,3.55,37.56,6.88L37.56,6.88z M39.87,9.19c-0.74,0.83-1.85-0.37-1.11-1.11  c2.68-2.68,7.03-2.68,9.71,0c0.74,0.74-0.37,1.94-1.11,1.11C45.33,7.16,41.9,7.16,39.87,9.19L39.87,9.19z M43.66,11.23  c-1.02,0-1.76,0.74-1.76,1.76c0,0.93,0.74,1.67,1.76,1.67c0.93,0,1.67-0.74,1.67-1.67C45.33,11.97,44.59,11.23,43.66,11.23  L43.66,11.23z M30.62,57.58h26c1.02,0,1.76-0.74,1.76-1.67c0-1.02-0.74-1.76-1.76-1.76h-26c-1.02,0-1.76,0.74-1.76,1.76  C28.86,56.84,29.6,57.58,30.62,57.58L30.62,57.58z M37.28,52.49h12.68v-3.52H37.28V52.49z" />
   
</svg>