<svg xmlns="http://www.w3.org/2000/svg" data-name="Layer 2" viewBox="0 0 128 160" x="0px" y="0px">
    <path
        d="M17.71,73.65c1.06,2.92,3.56,5.15,6.63,5.83v16.41c0,3.58,2.9,6.49,6.46,6.49s6.46-2.91,6.46-6.49v-16.19h6.79c7.66,0,15.1,3.18,20.41,8.73,.25,.26,.51,.51,.79,.75,0,4.59,3.18,7.01,6.42,7.01,3.55,0,6.43-2.9,6.43-6.46V38.26c0-3.57-2.86-6.46-6.43-6.46-3.29,0-6.42,2.46-6.42,7.01-.27,.24-.54,.49-.78,.74-5.31,5.55-12.75,8.73-20.41,8.73H26.34c-3.97,0-7.34,2.53-8.63,6.06-4.88,.48-8.71,4.62-8.71,9.65s3.83,9.18,8.71,9.65Zm-.56-16.18v13.05c0,.25-5.15-1.43-5.15-6.52,0-3.17,2.2-5.84,5.15-6.53Zm24.71-6.18h2.2c7.82,0,15.44-3,21.19-8.3v42.02c-5.75-5.3-13.37-8.3-21.19-8.3h-2.2v-25.42Zm-3,0v25.42h-12.52c-3.41,0-6.19-2.78-6.19-6.19v-13.04c0-3.41,2.78-6.19,6.19-6.19h12.52Zm-4.59,44.61c0,1.92-1.55,3.49-3.46,3.49s-3.46-1.56-3.46-3.49v-16.19h6.92v16.19Zm37.41-61.1c1.89,0,3.43,1.53,3.43,3.46v51.48c0,1.91-1.54,3.46-3.43,3.46s-3.42-1.55-3.42-3.46V38.26c0-1.91,1.54-3.46,3.42-3.46Z" />
    <path
        d="M111.72,32.44v-12.98c0-3.2-2.6-5.8-5.8-5.8h-12.86c-3.2,0-5.8,2.6-5.8,5.8v12.98c0,3.2,2.6,5.8,5.8,5.8h12.86c3.2,0,5.8-2.6,5.8-5.8Zm-21.46,0v-12.98c0-1.54,1.26-2.8,2.8-2.8h12.86c1.54,0,2.8,1.26,2.8,2.8v12.98c0,1.54-1.26,2.8-2.8,2.8h-12.86c-1.55,0-2.8-1.26-2.8-2.8Z" />
    <path
        d="M98.42,32.2c5.54-4.33,6.36-4.56,6.36-6.25s-.82-1.92-6.36-6.25c-1.71-1.34-4.23-.12-4.23,2.07v8.36c0,2.18,2.51,3.41,4.23,2.07Zm-1.23-9.65l4.35,3.4-4.35,3.4v-6.8Z" />
    <path
        d="M113.2,53.36h-12.86c-3.2,0-5.8,2.6-5.8,5.8v12.98c0,3.2,2.6,5.8,5.8,5.8h12.86c3.2,0,5.8-2.6,5.8-5.8v-12.98c0-3.2-2.6-5.8-5.8-5.8Zm2.8,18.78c0,1.54-1.26,2.8-2.8,2.8h-12.86c-1.54,0-2.8-1.26-2.8-2.8v-12.98c0-1.54,1.26-2.8,2.8-2.8h12.86c1.54,0,2.8,1.26,2.8,2.8v12.98Z" />
    <path
        d="M106.77,59.6c-4.79-2.68-9.59,3.68-5.71,7.59,5.17,5.2,4.88,5.11,5.71,5.11s.7-.08,5.71-5.11c3.88-3.9-.9-10.28-5.71-7.59Zm3.58,5.48l-3.58,3.6-3.58-3.6c-1.12-1.13-.32-3.08,1.26-3.08,1.2,0,1.24,.97,2.32,.97,.4,0,.78-.16,1.06-.44,.67-.68,1.84-.68,2.52,0,.7,.7,.7,1.85,0,2.55Z" />
    <path
        d="M111.72,95.56c0-3.2-2.6-5.8-5.8-5.8h-12.86c-3.2,0-5.8,2.6-5.8,5.8v12.98c0,3.2,2.6,5.8,5.8,5.8h12.86c3.2,0,5.8-2.6,5.8-5.8v-12.98Zm-3,12.98c0,1.54-1.26,2.8-2.8,2.8h-12.86c-1.55,0-2.8-1.26-2.8-2.8v-12.98c0-1.54,1.26-2.8,2.8-2.8h12.86c1.54,0,2.8,1.26,2.8,2.8v12.98Z" />
    <path
        d="M103.77,99.99l-5.35-4.18c-1.72-1.34-4.23-.11-4.23,2.07v8.36c0,1.5,1.22,2.63,2.62,2.63,1.19,0,1.2-.24,6.95-4.74,1.34-1.05,1.34-3.09,0-4.14Zm-6.58-1.33l4.35,3.4-4.35,3.4v-6.8Z" />
    
</svg>