<svg xmlns="http://www.w3.org/2000/svg" xmlnsXlink="http://www.w3.org/1999/xlink" version="1.1" x="0px" y="0px"
	viewBox="0 0 98 122.5" style="enable-background:new 0 0 98 98;" xmlSpace="preserve">
	<style type="text/css">
		.st0 {
			fill-rule: evenodd;
			clip-rule: evenodd;
		}
	</style>
	<path
		d="M18.605,56.592c0.394,0.683,0.16,1.557-0.523,1.951l-6.529,3.768c-0.225,0.13-0.471,0.191-0.713,0.191  c-0.494,0-0.974-0.256-1.239-0.715c-0.394-0.683-0.16-1.557,0.523-1.951l6.529-3.768C17.337,55.674,18.211,55.909,18.605,56.592z   M13.906,39.045c0-0.789-0.64-1.429-1.429-1.429H4.932c-0.789,0-1.429,0.64-1.429,1.429c0,0.789,0.64,1.429,1.429,1.429h7.545  C13.266,40.474,13.906,39.834,13.906,39.045z M93.068,37.616h-7.545c-0.789,0-1.429,0.64-1.429,1.429  c0,0.789,0.64,1.429,1.429,1.429h7.545c0.789,0,1.429-0.64,1.429-1.429C94.497,38.256,93.857,37.616,93.068,37.616z M80.634,22.207  c0.242,0,0.488-0.062,0.713-0.191l6.529-3.768c0.683-0.394,0.918-1.268,0.523-1.951c-0.394-0.683-1.268-0.918-1.951-0.523  l-6.529,3.768c-0.683,0.394-0.918,1.268-0.523,1.951C79.66,21.951,80.14,22.207,80.634,22.207z M10.125,18.248l6.529,3.768  c0.225,0.13,0.471,0.191,0.713,0.191c0.494,0,0.974-0.256,1.239-0.715c0.394-0.683,0.16-1.557-0.523-1.951l-6.529-3.768  c-0.684-0.395-1.557-0.16-1.951,0.523C9.207,16.98,9.441,17.854,10.125,18.248z M90.37,52.522v5.735c0,0.789-0.64,1.429-1.429,1.429  h-1.745c-0.347,1.25-0.844,2.448-1.485,3.582l1.236,1.236c0.558,0.558,0.558,1.463,0,2.02l-4.056,4.056  c-0.268,0.268-0.631,0.418-1.01,0.418c0,0-0.001,0-0.001,0c-0.379,0-0.743-0.151-1.011-0.42l-1.235-1.238  c-1.128,0.639-2.325,1.136-3.577,1.483v1.75c0,0.789-0.64,1.429-1.429,1.429h-5.735c-0.789,0-1.429-0.64-1.429-1.429v-1.75  c-1.255-0.347-2.452-0.844-3.579-1.483l-1.239,1.239c-0.076,0.076-0.16,0.141-0.249,0.197v5.574c0,2.496-1.693,4.602-3.99,5.231  v0.342c0,4.034-3.284,7.315-7.32,7.315h-4.177c-4.036,0-7.32-3.282-7.32-7.315v-0.342c-2.3-0.629-3.995-2.735-3.995-5.231v-7.08  c0-1.636-0.773-2.998-2.176-3.835c-4.456-2.655-8.189-6.429-10.793-10.913c-2.685-4.623-4.104-9.908-4.104-15.286  C18.523,22.432,32.195,8.76,49,8.76c16.805,0,30.477,13.672,30.477,30.477c0,0.69-0.026,1.386-0.073,2.08  c0.077,0.042,0.155,0.083,0.231,0.127l1.235-1.238c0.268-0.268,0.631-0.419,1.011-0.42c0,0,0.001,0,0.001,0  c0.379,0,0.742,0.151,1.01,0.418l4.056,4.056c0.268,0.268,0.418,0.631,0.418,1.01c0,0.379-0.151,0.742-0.418,1.01l-1.236,1.236  c0.641,1.133,1.138,2.329,1.484,3.577h1.746C89.731,51.094,90.37,51.733,90.37,52.522z M38.453,69.272v2.738h21.088v-2.516  l-2.97-2.97c-0.268-0.268-0.419-0.632-0.418-1.011s0.151-0.743,0.42-1.011l1.239-1.236c-0.641-1.133-1.138-2.331-1.484-3.581h-1.75  c-0.789,0-1.429-0.64-1.429-1.429v-3.375l-3.631,1.414c-0.167,0.065-0.343,0.097-0.518,0.097c-0.176,0-0.351-0.032-0.518-0.097  l-19.895-7.737c-0.549-0.214-0.911-0.742-0.911-1.332v-16.37c0-0.589,0.362-1.118,0.911-1.332l19.895-7.737  c0.333-0.129,0.702-0.129,1.036,0l19.895,7.737c0.549,0.214,0.911,0.742,0.911,1.332v5.924h4.306c0.789,0,1.429,0.64,1.429,1.429  v1.75c0.183,0.051,0.365,0.106,0.545,0.163c0.01-0.296,0.016-0.592,0.016-0.886c0-15.23-12.39-27.62-27.62-27.62  c-15.23,0-27.62,12.39-27.62,27.62c0,9.685,5.174,18.783,13.503,23.745C37.152,64.336,38.453,66.628,38.453,69.272z M56.153,45.271  c0-0.379,0.15-0.743,0.418-1.011l4.056-4.056c0.558-0.558,1.462-0.558,2.02,0l1.239,1.239c1.127-0.64,2.324-1.136,3.579-1.483  v-1.749v-5.265l-17.038,6.622v13.308l2.968-1.156c0.257-0.377,0.69-0.625,1.181-0.625h1.751c0.347-1.247,0.843-2.444,1.484-3.576  l-1.239-1.236C56.305,46.014,56.154,45.651,56.153,45.271z M64.952,30.857l-2.64-1.027c-5.32,2.064-10.637,4.132-15.953,6.2  L49,37.057L64.952,30.857z M37.118,38.202l1.363-0.425c0.468-0.145,0.977-0.042,1.351,0.276l1.156,0.983v-2.027l-3.869-1.504V38.202  z M58.37,28.297l-2.782-1.082l-15.955,6.201l2.783,1.082C47.733,32.43,53.051,30.363,58.37,28.297z M51.646,25.682L49,24.653  l-15.952,6.204l2.642,1.027L51.646,25.682z M30.534,46.25l17.038,6.626V39.567l-3.727-1.449v3.435c0,0.664-0.391,1.27-0.996,1.544  c-0.223,0.101-0.46,0.15-0.697,0.15c-0.398,0-0.79-0.14-1.102-0.408l-2.47-2.1L36.459,41.4c-0.007,0.002-0.014,0.004-0.022,0.007  c-0.511,0.15-1.071,0.05-1.497-0.269c-0.425-0.318-0.679-0.824-0.679-1.354v-5.389l-3.727-1.449V46.25z M55.552,81.925v-0.149  H42.448v0.149c0,2.458,2.002,4.458,4.463,4.458h4.177C53.55,86.383,55.552,84.383,55.552,81.925z M59.542,76.352v-1.484H38.453  v1.484c0,1.415,1.151,2.566,2.566,2.566H56.98C58.393,78.918,59.542,77.767,59.542,76.352z M87.513,53.951h-1.444  c-0.681,0-1.267-0.481-1.401-1.148c-0.336-1.682-0.993-3.266-1.953-4.708c-0.377-0.567-0.302-1.321,0.179-1.802l1.023-1.023  l-2.034-2.034l-1.023,1.025c-0.482,0.483-1.238,0.558-1.806,0.178c-1.43-0.956-3.013-1.613-4.705-1.951  c-0.668-0.134-1.148-0.72-1.148-1.401v-1.449h-2.877v1.449c0,0.681-0.481,1.268-1.149,1.401c-1.697,0.338-3.279,0.994-4.702,1.95  c-0.567,0.38-1.324,0.307-1.806-0.176l-1.028-1.028l-2.034,2.034l1.025,1.023c0.482,0.481,0.558,1.236,0.18,1.803  c-0.959,1.441-1.616,3.025-1.953,4.708c-0.134,0.668-0.72,1.148-1.401,1.148h-1.449v2.878h1.449c0.681,0,1.268,0.481,1.401,1.149  c0.336,1.685,0.993,3.27,1.953,4.712c0.378,0.567,0.302,1.322-0.18,1.803l-1.025,1.023l2.034,2.034l1.028-1.028  c0.483-0.483,1.239-0.557,1.806-0.176c1.424,0.955,3.006,1.611,4.702,1.95c0.668,0.133,1.149,0.72,1.149,1.401v1.449h2.877v-1.449  c0-0.681,0.481-1.267,1.148-1.401c1.692-0.338,3.275-0.995,4.705-1.951c0.568-0.38,1.324-0.305,1.806,0.179l1.023,1.025l2.034-2.034  l-1.023-1.023c-0.481-0.481-0.556-1.235-0.179-1.802c0.96-1.442,1.617-3.027,1.953-4.712c0.133-0.668,0.72-1.149,1.401-1.149h1.444  V53.951z M82.127,55.39c0,5.715-4.65,10.365-10.365,10.365s-10.365-4.65-10.365-10.365c0-5.712,4.65-10.36,10.365-10.36  S82.127,49.677,82.127,55.39z M79.27,55.39c0-4.137-3.368-7.502-7.507-7.502c-4.14,0-7.507,3.366-7.507,7.502  c0,4.14,3.368,7.507,7.507,7.507C75.902,62.897,79.27,59.529,79.27,55.39z" />

</svg>