<svg id="Layer_1" data-name="Layer 1" xmlns="http://www.w3.org/2000/svg" xmlns:xlink="http://www.w3.org/1999/xlink" viewBox="0 0 727.43 226.43"><defs><style>.cls-1{fill:url(#New_Gradient_Swatch);}.cls-2{fill:url(#New_Gradient_Swatch_copy);}.cls-3{fill:url(#linear-gradient);}.cls-4{fill:url(#linear-gradient-2);}.cls-5{fill:url(#linear-gradient-3);}.cls-6{fill:url(#linear-gradient-4);}.cls-7{fill:url(#linear-gradient-5);}.cls-8{fill:url(#linear-gradient-6);}.cls-9{font-size:44.11px;fill:#808184;font-family:MyriadPro-Regular, Myriad Pro;letter-spacing:0.01em;}.cls-10{letter-spacing:0.01em;}.cls-11{letter-spacing:0.01em;}.cls-12{letter-spacing:0.02em;}.cls-13{letter-spacing:0.01em;}.cls-14{letter-spacing:0.02em;}.cls-15{font-size:20px;fill:#11579d;font-family:Roboto-Bold, Roboto;font-weight:700;}</style><linearGradient id="New_Gradient_Swatch" x1="6956.77" y1="7287.24" x2="6956.77" y2="7154.46" gradientUnits="userSpaceOnUse"><stop offset="0" stop-color="#2a4b9c"/><stop offset="0.19" stop-color="#2a53a2"/><stop offset="0.5" stop-color="#286ab3"/><stop offset="0.87" stop-color="#278fce"/><stop offset="1" stop-color="#269dd8"/></linearGradient><linearGradient id="New_Gradient_Swatch_copy" x1="7241.32" y1="7086.5" x2="7241.32" y2="7259.52" gradientUnits="userSpaceOnUse"><stop offset="0" stop-color="#bed030"/><stop offset="0.6" stop-color="#68b645"/><stop offset="1" stop-color="#189e49"/></linearGradient><linearGradient id="linear-gradient" x1="7342.02" y1="7260.4" x2="7342.02" y2="7155.39" gradientUnits="userSpaceOnUse"><stop offset="0" stop-color="#2a4b9c"/><stop offset="0.19" stop-color="#2953a2"/><stop offset="0.5" stop-color="#276ab3"/><stop offset="0.87" stop-color="#248fce"/><stop offset="1" stop-color="#239dd8"/></linearGradient><linearGradient id="linear-gradient-2" x1="7400.06" y1="7260.4" x2="7400.06" y2="7155.39" xlink:href="#linear-gradient"/><linearGradient id="linear-gradient-3" x1="7456.9" y1="7262.25" x2="7456.9" y2="7153.54" xlink:href="#linear-gradient"/><linearGradient id="linear-gradient-4" x1="7502.43" y1="7262.25" x2="7502.43" y2="7153.54" xlink:href="#linear-gradient"/><linearGradient id="linear-gradient-5" x1="7516.01" y1="7126.94" x2="7516.01" y2="7033.52" gradientTransform="translate(2585.68 -1892.02) rotate(18.37)" gradientUnits="userSpaceOnUse"><stop offset="0" stop-color="#129d49"/><stop offset="0.4" stop-color="#68b646"/><stop offset="1" stop-color="#bfcf30"/></linearGradient><linearGradient id="linear-gradient-6" x1="7505.72" y1="7150.29" x2="7505.72" y2="7062.15" gradientTransform="translate(2585.68 -1892.02) rotate(18.37)" xlink:href="#linear-gradient"/></defs><path id="digi" class="cls-1" d="M6835.5,7258.52V7154.46l34,.22c33.15,0,52.93,19.23,52.93,52,0,29.11-17.57,51.82-58.69,51.82Zm18.44-18.11h16.74c16.24,0,33.32-8.09,33.32-34.21,0-11.93-4-20.34-11.06-26.27-9.41-7.88-18.95-8.38-34.74-8.38h-4.26Zm80.08-65.48v-20.47h18.18v20.47Zm0,83V7178.9h18.18V7258Zm93.95-78.76h18.26v62.59c0,30.29-15.13,45.44-41.52,45.44a45.65,45.65,0,0,1-24.18-6.52c-7.7-4.57-13.21-13-16.49-20.81h20c3.35,5.08,8.51,11,21.12,11,14.53,0,22.53-11.28,22.53-19.55-3.76,4.27-12.23,8.1-25.17,8.1a40.75,40.75,0,0,1-29.19-12.81q-11.14-11.57-11.14-29.41c0-10.29,4.78-20.21,12.26-27.79s17.5-12.07,27.24-12.07c11.47,0,17.07,1.92,26.29,7.76Zm-24.2,15.19a22.8,22.8,0,0,0-16.25,6.42,24.24,24.24,0,0,0-7.16,17.28,24.84,24.84,0,0,0,6.76,17.37,23.81,23.81,0,0,0,16.94,7.53,24.15,24.15,0,0,0,17.23-7.44c4.11-4.23,6.68-10.68,6.68-18,0-6.78-3.13-12.33-7.44-16.65S7010.64,7194.4,7003.77,7194.4Zm56.09-19.47v-20.47H7078v20.47Zm0,83V7178.9H7078V7258Z" transform="translate(-6835.5 -7086.5)"/><g id="vid"><path class="cls-2" d="M7294.29,7154.46V7257.7h-16.6V7250c-7.24,7.92-16.42,9.56-26.37,9.56a37.12,37.12,0,0,1-27.9-11.74q-11.27-11.73-11.27-28.92t11.2-28.84a39.63,39.63,0,0,1,27.87-12.56c10.82-.33,18.15,2.26,24.92,8.23v-31.23Zm-40.82,39.8a23.07,23.07,0,0,0-23.35,23.5,25.18,25.18,0,0,0,6.84,18,22.4,22.4,0,0,0,16.94,7.23,21.81,21.81,0,0,0,16.5-7.09,24.43,24.43,0,0,0,6.7-17.41,23.73,23.73,0,0,0-6.77-17.34A22.74,22.74,0,0,0,7253.47,7194.26ZM7136.84,7258a260.43,260.43,0,0,1,16.55-34,241.79,241.79,0,0,1,25.2-35.26,247,247,0,0,1,19.66-20.36,267.6,267.6,0,0,1,23.92-19.65,295,295,0,0,1,45.26-27,343.88,343.88,0,0,1,38.3-15.75q16.85-5.79,34.18-10,11.06-2.67,22.26-4.69,10-1.82,20.17-3.05c5.53-.68,11.07-1.12,16.76-1.54-.49-.06-.83-.13-1.18-.14-5.35-.2-10.68-.14-16,.07-8.45.33-16.85,1.25-25.26,2.06-6,.57-11.95,1.38-17.9,2.28-6.5,1-13,2.11-19.4,3.45q-15.53,3.21-30.68,7.86a319,319,0,0,0-54,22.07,307,307,0,0,0-45.06,28.65A292.63,292.63,0,0,0,7163,7176q-7.56,7.39-14.52,15.36a195.59,195.59,0,0,0-15.77,20.51l-1.31,1.95c-.14-.3-.36-.77-.45-1q-4.06-10.92-8.12-21.83c-4.42-11.87-9.14-24.65-13.54-36.54h-25.77c.1.31.15.47.21.61q7.13,17.73,14.24,35.46,7.45,18.54,14.92,37.06c4,9.89,8.24,20.5,12.21,30.39Zm48.15-63.72c-.34.4-.66.81-1,1.21V7258h18.17V7178.9h-2.74C7194.38,7183.82,7189.53,7189,7185,7194.25Z" transform="translate(-6835.5 -7086.5)"/></g><g id="bio"><path class="cls-3" d="M7307.91,7260.4v-105h21.6q21.46,0,30.91,6.6t9.45,21.39q0,7.53-2.56,11.94c-1.7,2.93-4.74,5.54-9.09,7.81q9.38,3.84,13.64,10t4.26,16q0,15.06-10.37,23.16t-29.84,8.1Zm19.47-64.51h6.25q8.82,0,12.79-2.56c2.65-1.71,4-4.45,4-8.25q0-10.65-15.06-10.65h-8Zm0,45.9H7337q19.47,0,19.47-13.22,0-13.65-19.89-13.64h-9.24Z" transform="translate(-6835.5 -7086.5)"/><path class="cls-4" d="M7390.33,7260.4v-105h19.47v105Z" transform="translate(-6835.5 -7086.5)"/><path class="cls-5" d="M7460.15,7237.74a36.63,36.63,0,0,1-5.52-4.55,36.39,36.39,0,0,1-.14-50.59,33.83,33.83,0,0,1,25.08-10.3h.23c.69-8.82,4.34-14.3,9.28-18a61.14,61.14,0,0,0-9.51-.77q-23,0-38.93,15.77t-15.92,38.51q0,22.89,16.06,38.65a53.45,53.45,0,0,0,21.32,13C7462.66,7256.64,7463.23,7249.78,7460.15,7237.74Z" transform="translate(-6835.5 -7086.5)"/><path class="cls-6" d="M7518.44,7169.24a53.61,53.61,0,0,0-16.53-11.26c-4.42,4.48-6.53,9.78-5.26,18.51a34.09,34.09,0,0,1,7.93,6q10.1,10.23,10.09,25.43t-9.87,25.37q-9.89,10.16-24.8,10.16c-.86,0-1.69-.06-2.53-.11-.45,5.48-2.38,11.33-6.9,18.1a62,62,0,0,0,9.57.77q22.88,0,38.51-15.78t15.63-38.65Q7534.28,7184.95,7518.44,7169.24Z" transform="translate(-6835.5 -7086.5)"/></g><g id="symbol"><path class="cls-7" d="M7498.23,7195.33c-9.76-24.59-6.44-34.76,5-43.55-12.7,4.21-24,10.08-18.11,36.27l-9.74-3.24a2.68,2.68,0,0,0-3.38,1.7h0a2.67,2.67,0,0,0,1.7,3.38l13.3,4.42c1.44,4.75,3.34,11,4.14,13.8a29.06,29.06,0,0,1,.94,5l-16.75-5.57a2.7,2.7,0,0,0-3.39,1.7h0a2.68,2.68,0,0,0,1.7,3.38l18.3,6.08.27.07c-1.55,13.79-13.93,23.18-13.49,23.34S7509.81,7224.52,7498.23,7195.33Z" transform="translate(-6835.5 -7086.5)"/><path class="cls-8" d="M7484.14,7222.79l-15.23-5.06v0c-1.06-3.32-2.21-6.69-3.32-10.14a25.65,25.65,0,0,1-1.23-8.4l16.63,5.52a2.68,2.68,0,0,0,3.39-1.69h0a2.69,2.69,0,0,0-1.7-3.39l-17.58-5.83,0-.31c3-11.87,13.27-19.72,12.87-19.87s-31.14,17.55-19.56,46.74c9.76,24.59,8.42,37.56,6.9,41.93,11.76-15.62,8.74-25.49,5.39-38.27l11.73,3.89a2.67,2.67,0,0,0,3.38-1.7h0A2.68,2.68,0,0,0,7484.14,7222.79Z" transform="translate(-6835.5 -7086.5)"/></g><text class="cls-9" transform="translate(220.1 215.4)">Bio<tspan class="cls-10" x="60.3" y="0">t</tspan><tspan class="cls-11" x="75.26" y="0">echnology </tspan><tspan class="cls-12" x="285.89" y="0">M</tspan><tspan class="cls-13" x="322.24" y="0">a</tspan><tspan class="cls-14" x="344.12" y="0">r</tspan><tspan class="cls-13" x="359.34" y="0">keting</tspan></text><text class="cls-15" transform="translate(697.54 73.05)">TM</text></svg>