<?xml version="1.0" standalone="no"?>
<!DOCTYPE svg PUBLIC "-//W3C//DTD SVG 20010904//EN"
 "http://www.w3.org/TR/2001/REC-SVG-20010904/DTD/svg10.dtd">
<svg version="1.0" xmlns="http://www.w3.org/2000/svg"
 width="200.000000pt" height="200.000000pt" viewBox="0 0 200.000000 200.000000"
 preserveAspectRatio="xMidYMid meet">
<metadata>
Created by potrace 1.14, written by Peter Selinger 2001-2017
</metadata>
<g transform="translate(0.000000,200.000000) scale(0.100000,-0.100000)"
fill="#000000" stroke="none">
<path d="M878 1539 c-215 -161 -332 -404 -300 -622 6 -40 34 -134 61 -208 27
-74 64 -192 82 -264 30 -118 33 -144 34 -278 0 -146 0 -148 19 -125 29 36 83
148 102 214 25 83 21 213 -9 337 -13 53 -21 97 -18 97 4 0 54 -16 111 -35 57
-19 110 -35 117 -35 7 0 20 11 28 24 29 45 9 60 -151 113 l-146 49 -34 104
c-33 97 -58 230 -44 230 3 0 73 -23 155 -50 88 -30 159 -48 172 -45 27 6 41
49 23 70 -6 7 -82 37 -168 66 -86 28 -161 55 -166 60 -23 21 61 179 151 285
30 35 53 64 51 64 -2 0 -33 -23 -70 -51z"/>
<path d="M875 1330 c3 -4 14 -10 25 -13 11 -3 18 -2 15 3 -3 4 -14 10 -25 13
-11 3 -18 2 -15 -3z"/>
<path d="M1165 1155 c8 -24 10 -29 20 -77 4 -21 11 -38 15 -38 4 0 7 -6 7 -12
-1 -7 4 -39 12 -71 7 -32 10 -61 8 -64 -3 -3 -78 19 -166 48 -157 52 -160 53
-180 35 -48 -43 -23 -62 174 -126 88 -29 164 -56 169 -61 14 -13 -14 -109 -57
-192 -24 -48 -67 -107 -111 -154 -76 -82 -65 -83 36 -3 134 106 241 265 274
406 14 58 15 161 4 252 0 1 -14 2 -31 2 -20 0 -28 -4 -23 -11 4 -7 1 -10 -7
-7 -8 3 -13 13 -11 23 3 13 -1 16 -13 11 -9 -3 -13 -2 -10 4 8 13 -5 13 -25 0
-9 -6 -17 -5 -21 1 -4 7 -13 4 -24 -8 -17 -17 -18 -16 -12 22 3 22 3 32 0 22
-5 -18 -5 -18 -20 0 -14 17 -14 17 -8 -2z m189 -74 c3 -5 -1 -11 -9 -14 -9 -4
-12 -1 -8 9 6 16 10 17 17 5z"/>
<path d="M1336 1154 c-3 -9 -4 -19 -1 -22 3 -3 5 1 5 9 0 11 2 11 10 -1 5 -8
10 -10 10 -5 0 6 -4 16 -9 23 -6 11 -10 10 -15 -4z"/>
</g>
</svg>
